<svg width="25" height="25" viewBox="0 0 25 25" fill="none" xmlns="http://www.w3.org/2000/svg">
<g clip-path="url(#clip0_140_539)">
<path d="M8.5 10.8818C8.5 10.3514 8.71071 9.8427 9.08579 9.46762C9.46086 9.09255 9.96957 8.88184 10.5 8.88184H18.5C19.0304 8.88184 19.5391 9.09255 19.9142 9.46762C20.2893 9.8427 20.5 10.3514 20.5 10.8818V18.8818C20.5 19.4123 20.2893 19.921 19.9142 20.296C19.5391 20.6711 19.0304 20.8818 18.5 20.8818H10.5C9.96957 20.8818 9.46086 20.6711 9.08579 20.296C8.71071 19.921 8.5 19.4123 8.5 18.8818V10.8818Z" stroke="white" stroke-width="1.5" stroke-linecap="round" stroke-linejoin="round"/>
<path d="M16.5 8.88184V6.88184C16.5 6.3514 16.2893 5.8427 15.9142 5.46762C15.5391 5.09255 15.0304 4.88184 14.5 4.88184H6.5C5.96957 4.88184 5.46086 5.09255 5.08579 5.46762C4.71071 5.8427 4.5 6.3514 4.5 6.88184V14.8818C4.5 15.4123 4.71071 15.921 5.08579 16.296C5.46086 16.6711 5.96957 16.8818 6.5 16.8818H8.5" stroke="white" stroke-width="1.5" stroke-linecap="round" stroke-linejoin="round"/>
</g>
<defs>
<clipPath id="clip0_140_539">
<rect width="24" height="24" fill="white" transform="translate(0.5 0.881836)"/>
</clipPath>
</defs>
</svg>
