<svg width="26" height="21" viewBox="0 0 26 21" fill="none" xmlns="http://www.w3.org/2000/svg">
<mask id="mask0_25_358" style="mask-type:luminance" maskUnits="userSpaceOnUse" x="0" y="0" width="26" height="21">
<path d="M25.4231 0H0.0141602V20.5722H25.4231V0Z" fill="white"/>
</mask>
<g mask="url(#mask0_25_358)">
<path d="M22.7952 5.52958C22.7952 5.73918 22.7952 5.96489 22.7952 6.1906C22.7952 12.8653 17.5715 20.5718 8.01087 20.5718C5.18945 20.5718 2.41639 19.7818 0.0463867 18.2986C0.449448 18.3469 0.868629 18.3631 1.28781 18.3792C3.62557 18.3792 5.89883 17.6214 7.73679 16.2026C5.51189 16.1543 3.56108 14.7516 2.88394 12.688C3.65782 12.8331 4.46394 12.8008 5.23781 12.6073C2.81945 12.1237 1.0621 10.06 1.0621 7.65775V7.59326C1.78761 7.9802 2.59373 8.20591 3.41598 8.22203C1.12659 6.73877 0.433326 3.78836 1.80373 1.46673C4.44782 4.62673 8.33333 6.5453 12.5252 6.75489C12.106 4.99754 12.6864 3.15958 14.0245 1.91816C16.1205 -0.000415862 19.4094 0.0963189 21.3764 2.14387C22.5372 1.91816 23.6496 1.49897 24.6815 0.918564C24.2945 2.0955 23.4884 3.07897 22.3921 3.70775C23.4239 3.59489 24.4235 3.32081 25.3748 2.91775C24.6815 3.93346 23.7948 4.8202 22.779 5.52958H22.7952Z" fill="white"/>
</g>
</svg>
