<svg width="24" height="21" viewBox="0 0 24 21" fill="none" xmlns="http://www.w3.org/2000/svg">
<mask id="mask0_25_349" style="mask-type:luminance" maskUnits="userSpaceOnUse" x="0" y="0" width="24" height="21">
<path d="M1.44825 5.13879e-05L0.107666 19.3167L21.8368 20.8247L23.1774 1.50807L1.44825 5.13879e-05Z" fill="white"/>
</mask>
<g mask="url(#mask0_25_349)">
<mask id="mask1_25_349" style="mask-type:luminance" maskUnits="userSpaceOnUse" x="0" y="0" width="24" height="21">
<path d="M1.44776 0.00102795L0.107178 19.3176L21.8363 20.8256L23.1769 1.50905L1.44776 0.00102795Z" fill="white"/>
</mask>
<g mask="url(#mask1_25_349)">
<path d="M12.183 12.9616L15.9396 17.234L20.212 4.20706L4.58937 9.01155L6.66916 10.2207C6.92712 10.3658 7.08835 10.5916 7.16896 10.8818L8.36202 15.4605L9.94202 13.6548L9.55508 13.2195C9.36161 12.9938 9.26488 12.7358 9.29712 12.4456C9.31325 12.1554 9.44222 11.9136 9.66794 11.7201L14.2951 7.754C14.5208 7.56053 14.7788 7.47992 15.069 7.51217C15.3592 7.52829 15.601 7.65727 15.7945 7.88298C15.9879 8.1087 16.0847 8.36666 16.0524 8.65686C16.0363 8.94706 15.9235 9.1889 15.6977 9.38237L11.8928 12.6552L12.183 12.9777V13.0099V12.9616ZM16.3104 20.4263C16.0041 20.4101 15.7622 20.2811 15.5688 20.0554L11.3608 15.2671L8.6361 18.3787C8.3459 18.7011 7.9912 18.814 7.57202 18.7173C7.15284 18.6205 6.87876 18.3626 6.7659 17.9434L5.16978 11.8169L1.381 9.60808C0.977939 9.36625 0.800592 9.02768 0.84896 8.56013C0.897327 8.09258 1.15529 7.80237 1.60671 7.65727L21.5824 1.56298C22.0016 1.434 22.3724 1.53074 22.6788 1.83706C22.9851 2.14339 23.0818 2.51421 22.9367 2.91727L17.4228 19.7007C17.3422 19.9265 17.1971 20.1199 17.0037 20.2489C16.7941 20.394 16.5683 20.4424 16.3265 20.4263H16.3104Z" fill="white"/>
</g>
</g>
</svg>
