<svg width="34" height="15" viewBox="0 0 34 15" fill="none" xmlns="http://www.w3.org/2000/svg">
<mask id="mask0_25_240" style="mask-type:luminance" maskUnits="userSpaceOnUse" x="0" y="0" width="34" height="15">
<path d="M33.5 0H0.5V15H33.5V0Z" fill="white"/>
</mask>
<g mask="url(#mask0_25_240)">
<path d="M22.2094 12.1104C22.2094 12.1104 22.1951 12.1539 22.1808 12.183C22.1808 12.183 22.1523 12.1539 22.138 12.1394C22.1665 12.1394 22.1808 12.1249 22.2094 12.1104ZM22.2952 12.0523C22.2952 12.0523 22.2523 12.0668 22.238 12.0813C22.238 12.0523 22.2523 12.0378 22.2666 12.0232C22.2666 12.0232 22.2952 12.0523 22.3095 12.0668L22.2952 12.0523ZM22.2237 12.0958C22.2237 12.0958 22.2237 12.0958 22.2094 12.0958C22.2094 12.0958 22.2094 12.0958 22.2094 12.0813C22.2094 12.0813 22.2094 12.0813 22.2237 12.0813C22.2237 12.0813 22.2237 12.0813 22.2237 12.0958ZM24.1102 10.9777C24.1102 10.9777 24.0817 10.9487 24.0674 10.9342C24.096 10.9342 24.1102 10.9197 24.1388 10.9051C24.1388 10.9342 24.1245 10.9487 24.1102 10.9777ZM8.91795 10.1501C8.91795 10.1501 8.93224 10.1791 8.94654 10.1791C8.94654 10.1791 8.94654 10.1936 8.93224 10.2081C8.91795 10.2081 8.90366 10.1791 8.88937 10.1791C8.88937 10.1791 8.91795 10.1646 8.91795 10.1501ZM7.63168 10.1501C7.63168 10.1501 7.64597 10.1791 7.66027 10.1791C7.66027 10.1791 7.66027 10.1936 7.66027 10.2081C7.64597 10.2081 7.63168 10.1936 7.61739 10.1791C7.61739 10.1791 7.63168 10.1646 7.64597 10.1501H7.63168ZM5.07343 10.1501C5.07343 10.1501 5.10201 10.1791 5.10201 10.1936C5.07343 10.1936 5.05914 10.1936 5.03056 10.1936C5.03056 10.1936 5.05914 10.1646 5.07343 10.1646V10.1501ZM1.4147 10.1791C1.4147 10.1791 1.45758 10.1646 1.48616 10.1501C1.48616 10.1791 1.47187 10.1936 1.45758 10.2227C1.45758 10.2227 1.429 10.1936 1.4147 10.1791ZM25.1964 10.092C25.1964 10.092 25.1536 10.092 25.125 10.092C25.125 10.092 25.1536 10.0775 25.1678 10.0629C25.1678 10.0629 25.1964 10.092 25.1964 10.1065V10.092ZM7.20292 10.0629C7.20292 10.0629 7.21722 10.0629 7.23151 10.0775V10.1065C7.21722 10.1065 7.18863 10.1065 7.17434 10.092C7.17434 10.092 7.18863 10.0629 7.20292 10.0629ZM1.61479 9.65635L1.64337 9.62731C1.64337 9.62731 1.65767 9.65635 1.67196 9.67087C1.67196 9.67087 1.64337 9.68539 1.62908 9.69991C1.62908 9.69991 1.6005 9.67087 1.6005 9.65635H1.61479ZM15.3922 9.54019C15.3922 9.54019 15.4494 9.51114 15.4779 9.49662C15.4779 9.52566 15.4494 9.55471 15.4494 9.58375C15.4351 9.56923 15.4208 9.55471 15.4065 9.54019H15.3922ZM0.728693 9.51114H0.742985C0.742985 9.51114 0.742985 9.51114 0.742985 9.52566C0.742985 9.52566 0.742985 9.52566 0.728693 9.52566V9.51114ZM0.771568 9.58375C0.771568 9.58375 0.757277 9.54018 0.742985 9.52566C0.757277 9.52566 0.78586 9.54018 0.800152 9.55471C0.800152 9.55471 0.771568 9.58375 0.757277 9.58375H0.771568ZM1.68625 8.58181C1.68625 8.58181 1.65767 8.61085 1.64337 8.61085C1.64337 8.58181 1.64337 8.56729 1.64337 8.53825C1.64337 8.53825 1.65767 8.56729 1.67196 8.58181H1.68625ZM1.37183 8.53825C1.37183 8.53825 1.37183 8.53825 1.37183 8.55277C1.37183 8.55277 1.37183 8.55277 1.35754 8.55277L1.37183 8.53825ZM1.4147 8.61085C1.4147 8.61085 1.40041 8.56729 1.38612 8.55277C1.40041 8.55277 1.429 8.56729 1.44329 8.58181C1.44329 8.58181 1.4147 8.61085 1.40041 8.62537L1.4147 8.61085ZM1.54333 8.30592C1.54333 8.30592 1.51475 8.30592 1.51475 8.2914C1.51475 8.27687 1.54333 8.24783 1.55762 8.23331C1.55762 8.23331 1.58621 8.26235 1.58621 8.27687L1.55762 8.30592H1.54333ZM25.1821 4.93709H25.1107C25.1107 4.93709 25.1393 4.89353 25.1536 4.879C25.1536 4.879 25.1678 4.879 25.1821 4.89353V4.92257V4.93709ZM24.9678 4.82092C24.9678 4.82092 24.9249 4.84996 24.8963 4.86448C24.8963 4.83544 24.9106 4.82092 24.9249 4.79188C24.9249 4.79188 24.9535 4.82092 24.9678 4.83544V4.82092ZM24.196 4.7338C24.196 4.7338 24.1674 4.70475 24.1531 4.70475C24.1531 4.70475 24.1817 4.67571 24.196 4.66119C24.196 4.66119 24.2246 4.69023 24.2246 4.70475C24.2246 4.70475 24.196 4.7338 24.1817 4.7338H24.196ZM22.7382 2.6428C22.7382 2.6428 22.7096 2.67184 22.6953 2.67184C22.6953 2.6428 22.6953 2.62828 22.6953 2.59924C22.6953 2.59924 22.7096 2.62828 22.7239 2.6428H22.7382ZM22.824 2.46855C22.824 2.46855 22.7811 2.43951 22.7668 2.42499L22.7954 2.39595C22.824 2.39595 22.8383 2.41047 22.8668 2.42499C22.8668 2.42499 22.8383 2.45403 22.8383 2.46855H22.824ZM23.1098 0.145219C23.1098 0.145219 23.1527 0.130698 23.1813 0.116178C23.1813 0.145219 23.167 0.15974 23.1527 0.188782C23.1527 0.188782 23.1241 0.15974 23.1098 0.145219ZM23.1956 0.116178C23.1956 0.116178 23.1956 0.116178 23.1813 0.116178C23.1813 0.116178 23.1813 0.116178 23.1813 0.101657C23.1813 0.101657 23.1813 0.101657 23.1956 0.101657V0.116178ZM23.267 0.0726152C23.267 0.0726152 23.2241 0.087136 23.2099 0.101657C23.2099 0.0726152 23.2241 0.0580944 23.2384 0.0290527C23.2384 0.0290527 23.267 0.0580944 23.2813 0.0726152H23.267ZM25.4394 5.51792C25.4394 5.51792 25.4394 5.59052 25.4394 5.60504C25.4394 5.63409 25.3965 5.66313 25.3679 5.67765C25.3679 5.64861 25.3393 5.60504 25.3393 5.59052C25.3679 5.56148 25.3965 5.53244 25.4394 5.5034V5.51792ZM25.125 5.18394C25.125 5.18394 25.1536 5.12586 25.1678 5.11134C25.1964 5.14038 25.225 5.16942 25.2393 5.19846C25.2107 5.24202 25.1964 5.25655 25.1821 5.28559C25.1678 5.25655 25.125 5.2275 25.125 5.18394ZM23.6243 3.87707C23.6243 3.87707 23.5814 3.93515 23.5529 3.96419C23.5529 3.93515 23.51 3.90611 23.5243 3.87707C23.5243 3.84803 23.5529 3.81898 23.5814 3.78994C23.5957 3.81898 23.6386 3.84803 23.6243 3.86255V3.87707ZM23.0955 1.39401C23.0955 1.39401 23.1241 1.33593 23.1527 1.30688C23.167 1.33593 23.1956 1.36497 23.1956 1.39401C23.1956 1.42305 23.1527 1.45209 23.1241 1.48113C23.1241 1.45209 23.0955 1.42305 23.0955 1.39401ZM22.8097 0.958385C22.8097 0.958385 22.7668 0.885781 22.7811 0.87126C22.824 0.827698 22.8668 0.798656 22.9097 0.755093C22.9383 0.784135 22.9669 0.827697 22.9812 0.856739C23.0384 0.885781 23.0955 0.929343 23.1384 0.958385C23.1527 0.958385 23.1384 1.01647 23.1527 1.04551C23.1098 1.04551 23.0384 1.06003 23.0241 1.04551C22.9955 0.987426 22.9812 0.929343 22.9669 0.856739C22.9526 0.856739 22.9383 0.856739 22.924 0.87126C22.8811 0.900302 22.8383 0.929343 22.7954 0.943864L22.8097 0.958385ZM24.9249 10.2953C24.9249 10.2953 24.9392 10.2372 24.9535 10.2081C25.0106 10.2372 25.0535 10.2807 25.125 10.3243C25.0821 10.3534 25.0535 10.3969 25.0392 10.3824C24.9963 10.3679 24.9535 10.3388 24.9249 10.2953ZM9.73259 6.59246C9.73259 6.59246 9.66113 6.59246 9.63255 6.59246C9.58967 6.56342 9.56109 6.50534 9.5325 6.46177L9.58967 6.38917C9.63255 6.41821 9.68972 6.44725 9.73259 6.49081C9.74688 6.50534 9.73259 6.5489 9.73259 6.57794V6.59246ZM0.800152 9.19169C0.800152 9.19169 0.843028 9.29333 0.828736 9.32237C0.814444 9.38046 0.771568 9.43854 0.742985 9.4821C0.685817 9.4821 0.614358 9.46758 0.55719 9.45306C0.585774 9.38046 0.585774 9.29333 0.628649 9.23525C0.657233 9.19169 0.742985 9.19169 0.800152 9.17717V9.19169ZM1.81488 9.04648C1.87204 8.94483 1.9578 8.85771 2.05784 8.74154C2.08642 8.81415 2.11501 8.84319 2.11501 8.88675C2.11501 8.95935 2.04355 9.00292 2.08642 9.10456C2.14359 9.23525 1.98638 9.20621 1.92921 9.17717C1.88634 9.17717 1.81488 9.061 1.81488 9.04648ZM22.6668 11.849C22.6668 11.849 22.6382 11.7473 22.6668 11.7183C22.7525 11.5441 22.9097 11.5586 23.0669 11.5731C22.9812 11.6747 22.8954 11.7909 22.8097 11.878C22.7954 11.8926 22.7096 11.878 22.6811 11.849H22.6668ZM23.0669 11.5586C23.1813 11.3262 23.4099 11.2101 23.61 11.0649C23.6243 11.0649 23.6815 11.0504 23.6815 11.0649C23.6958 11.0939 23.7101 11.1375 23.6958 11.1665C23.5386 11.3988 23.3385 11.5441 23.0526 11.5586H23.0669ZM24.1388 10.9051C24.1388 10.9051 24.1388 10.7599 24.1817 10.7164C24.296 10.6147 24.4247 10.5276 24.5533 10.4405C24.5819 10.426 24.639 10.426 24.6676 10.4405C24.6819 10.4405 24.6962 10.5131 24.6819 10.5421C24.6533 10.6002 24.639 10.6873 24.5962 10.7164C24.4675 10.8035 24.3389 10.9342 24.1531 10.9051H24.1388ZM24.7534 4.76284C24.7534 4.76284 24.8391 4.8064 24.882 4.83544C24.8534 4.90805 24.8534 5.02421 24.7963 5.06777C24.7248 5.12586 24.6248 5.1549 24.5247 5.1549C24.4532 5.1549 24.3961 4.84996 24.4818 4.79188C24.5533 4.74832 24.6676 4.76284 24.7534 4.76284ZM1.37183 8.52373C1.21462 8.62537 1.05741 8.72702 0.914487 8.84319C0.85732 8.88675 0.814444 8.95935 0.757277 9.01744C0.757277 8.90127 0.714401 8.72702 0.771568 8.66894C0.914487 8.52373 1.08599 8.40756 1.27179 8.33496C1.37183 8.2914 1.35754 8.45112 1.35754 8.52373H1.37183ZM27.6118 6.44725C27.6118 6.44725 27.5832 6.41821 27.5832 6.40369H27.6546C27.6546 6.40369 27.626 6.43273 27.6118 6.44725ZM26.7542 6.22944L26.7257 6.2004C26.7257 6.2004 26.74 6.18588 26.7542 6.17136C26.7542 6.17136 26.7685 6.2004 26.7828 6.2004C26.7828 6.2004 26.7542 6.21492 26.74 6.22944H26.7542ZM26.4398 6.04067C26.4398 6.04067 26.4112 6.04067 26.3827 6.04067C26.3827 6.01163 26.3827 5.96807 26.3827 5.93902C26.4255 5.86642 26.4827 5.80834 26.5399 5.75025C26.5542 5.77929 26.5827 5.80834 26.5827 5.83738C26.597 5.95354 26.5827 6.04067 26.4255 6.05519L26.4398 6.04067ZM26.3112 6.06971C26.3112 6.06971 26.3541 6.04067 26.3827 6.04067C26.3827 6.06971 26.3541 6.08423 26.3541 6.11327C26.3541 6.11327 26.3255 6.08423 26.3112 6.06971ZM26.1111 5.79382C26.1111 5.79382 26.0825 5.72121 26.0825 5.69217C26.0825 5.67765 26.1111 5.64861 26.1397 5.63409C26.1397 5.66313 26.154 5.69217 26.1683 5.72121C26.154 5.75025 26.1254 5.76477 26.1111 5.79382ZM23.2384 9.36594L23.2099 9.33689L23.2384 9.30785C23.2384 9.30785 23.2527 9.33689 23.267 9.35141C23.267 9.35141 23.2384 9.36594 23.2384 9.38046V9.36594ZM21.7521 8.39304C21.7521 8.39304 21.7378 8.39304 21.7235 8.37852C21.7235 8.364 21.7521 8.34948 21.7521 8.33496C21.7521 8.33496 21.7664 8.34948 21.7807 8.364C21.7807 8.364 21.7521 8.37852 21.7521 8.39304ZM21.1232 6.53438C21.1232 6.53438 21.0804 6.53438 21.0661 6.51986C21.0661 6.51986 21.0804 6.49081 21.0947 6.49081C21.0947 6.49081 21.1089 6.49081 21.1232 6.50534C21.1232 6.50534 21.1232 6.51986 21.1232 6.53438ZM20.4515 9.14812C20.4515 9.14812 20.4229 9.1336 20.4229 9.11908C20.4229 9.11908 20.4372 9.10456 20.4515 9.09004C20.4515 9.09004 20.4658 9.11908 20.4801 9.11908L20.4515 9.14812ZM20.0371 8.93031C20.0371 8.93031 20.0085 8.90127 19.9942 8.90127C19.9942 8.90127 20.0085 8.88675 20.0228 8.87223C20.0228 8.87223 20.0371 8.90127 20.0513 8.90127C20.0513 8.90127 20.0513 8.91579 20.0371 8.93031ZM19.7083 6.88288C19.7083 6.88288 19.694 6.88288 19.6798 6.86836L19.7083 6.82479C19.7083 6.82479 19.7226 6.83931 19.7369 6.85383C19.7369 6.85383 19.7083 6.86836 19.7083 6.88288ZM19.5083 8.39304L19.4654 8.364C19.4654 8.364 19.4797 8.34948 19.494 8.33496C19.494 8.33496 19.5083 8.364 19.5225 8.364C19.5225 8.364 19.5225 8.37852 19.5083 8.39304ZM18.9509 7.87029C18.9509 7.87029 18.9223 7.85577 18.9223 7.84125C18.9223 7.84125 18.9223 7.82673 18.9366 7.81221H18.9652C18.9652 7.81221 18.9652 7.85577 18.9509 7.87029ZM18.3077 6.99904L18.2791 6.97C18.2791 6.97 18.2934 6.95548 18.3077 6.94096C18.3077 6.94096 18.322 6.97 18.3363 6.97C18.3363 6.97 18.322 6.98452 18.3077 6.99904ZM17.9504 6.79575C17.9504 6.79575 17.8933 6.78123 17.8647 6.76671C17.879 6.75219 17.9076 6.72315 17.9219 6.70863C17.9504 6.70863 17.979 6.73767 18.0076 6.73767C17.9933 6.75219 17.9647 6.79575 17.9504 6.79575ZM17.6646 9.061C17.6646 9.061 17.636 9.04648 17.636 9.03196C17.636 9.03196 17.636 9.01744 17.636 9.00292H17.6646C17.6646 9.01744 17.6646 9.04648 17.6503 9.061H17.6646ZM17.5503 6.8974C17.5503 6.8974 17.4788 6.86836 17.4359 6.85383C17.4645 6.81027 17.5074 6.78123 17.5503 6.75219C17.5503 6.75219 17.5931 6.78123 17.6217 6.79575C17.5931 6.83931 17.5788 6.88288 17.5503 6.91192V6.8974ZM17.293 7.55083C17.293 7.55083 17.2501 7.52179 17.2215 7.50727C17.2501 7.50727 17.2787 7.46371 17.293 7.46371C17.3216 7.46371 17.3502 7.50727 17.3788 7.52179C17.3502 7.52179 17.3216 7.55083 17.293 7.55083ZM16.9071 6.2004C16.9071 6.2004 16.95 6.18588 16.9786 6.17136C16.9786 6.18588 16.9643 6.21492 16.95 6.22944C16.95 6.22944 16.9214 6.2004 16.9071 6.2004ZM16.7356 8.07358C16.7356 8.07358 16.6927 8.07358 16.6785 8.05906C16.6785 8.05906 16.6927 8.03002 16.707 8.03002C16.707 8.03002 16.7213 8.03002 16.7356 8.04454C16.7356 8.04454 16.7356 8.05906 16.7356 8.07358ZM15.5637 8.07358C15.5637 8.07358 15.5208 8.07358 15.5065 8.05906C15.5065 8.05906 15.5208 8.03002 15.5351 8.03002C15.5351 8.03002 15.5494 8.03002 15.5637 8.04454C15.5637 8.04454 15.5637 8.05906 15.5637 8.07358ZM15.0063 9.27881L14.9777 9.24977C14.9777 9.24977 14.992 9.22073 15.0063 9.22073C15.0063 9.22073 15.0206 9.23525 15.0349 9.24977L15.0063 9.27881ZM15.0063 7.49275C15.0063 7.49275 15.0206 7.49275 15.0349 7.50727C15.0349 7.50727 15.0349 7.52179 15.0349 7.53631C15.0206 7.53631 14.992 7.53631 14.9777 7.52179C14.9777 7.52179 14.992 7.49275 15.0063 7.49275ZM14.2488 9.16264L14.2202 9.1336C14.2488 9.07552 14.2774 9.03196 14.306 8.97387C14.3632 9.01744 14.3775 9.03196 14.3918 9.061C14.3489 9.10456 14.2917 9.1336 14.2345 9.17717L14.2488 9.16264ZM14.3632 6.73767C14.3632 6.73767 14.3775 6.73767 14.3918 6.73767C14.3918 6.75219 14.3918 6.78123 14.3775 6.79575C14.3775 6.79575 14.3489 6.78123 14.3489 6.76671C14.3489 6.76671 14.3489 6.75219 14.3632 6.73767ZM13.6486 9.4821C13.6486 9.4821 13.5771 9.4095 13.5914 9.38046C13.62 9.30785 13.6772 9.23525 13.7343 9.14812C13.8058 9.20621 13.8487 9.23525 13.8772 9.24977C13.8058 9.32237 13.7343 9.39498 13.6629 9.4821H13.6486ZM13.4199 8.94483C13.4199 8.94483 13.4056 8.94483 13.3913 8.93031C13.3913 8.91579 13.4199 8.90127 13.4199 8.88675C13.4199 8.88675 13.4342 8.90127 13.4485 8.91579C13.4485 8.91579 13.4199 8.93031 13.4199 8.94483ZM13.3199 7.85577C13.3199 7.85577 13.2913 7.82673 13.277 7.82673C13.277 7.82673 13.2913 7.81221 13.3056 7.79769C13.3056 7.79769 13.3199 7.82673 13.3341 7.82673C13.3341 7.82673 13.3342 7.84125 13.3199 7.85577ZM13.2627 9.39498C13.2627 9.39498 13.2055 9.38046 13.1769 9.36594C13.1912 9.35141 13.2198 9.33689 13.2341 9.30785C13.2627 9.30785 13.2913 9.33689 13.3199 9.33689C13.3056 9.35141 13.277 9.39498 13.2627 9.39498ZM12.248 8.93031C12.248 8.93031 12.2051 8.93031 12.1908 8.91579C12.1908 8.91579 12.2051 8.88675 12.2194 8.88675C12.2194 8.88675 12.2337 8.88675 12.248 8.90127C12.248 8.90127 12.248 8.91579 12.248 8.93031ZM11.1761 7.75413C11.1761 7.75413 11.1475 7.72508 11.1332 7.72508C11.1332 7.72508 11.1475 7.71056 11.1618 7.69604C11.1618 7.69604 11.1761 7.72508 11.1904 7.72508C11.1904 7.72508 11.1904 7.7396 11.1761 7.75413ZM11.1761 8.93031C11.1761 8.93031 11.1332 8.93031 11.1189 8.91579C11.1189 8.91579 11.1332 8.88675 11.1475 8.88675C11.1475 8.88675 11.1618 8.88675 11.1761 8.90127C11.1761 8.90127 11.1761 8.91579 11.1761 8.93031ZM10.9331 9.68539C10.9331 9.68539 10.7902 9.68539 10.7044 9.68539C10.7187 9.62731 10.7473 9.52567 10.7473 9.54019C10.9617 9.58375 10.6901 9.24977 10.9188 9.30785C10.9617 9.30785 11.0189 9.33689 11.0617 9.33689C11.0189 9.4821 10.9903 9.61279 10.9331 9.69991V9.68539ZM10.2614 7.07165L10.29 7.04261C10.29 7.04261 10.3186 7.07165 10.3186 7.08617C10.29 7.08617 10.2757 7.08617 10.2471 7.08617L10.2614 7.07165ZM10.1471 9.71444C10.1471 9.71444 10.1756 9.67087 10.1756 9.64183C10.1756 9.65635 10.2042 9.67087 10.2185 9.68539C10.1899 9.68539 10.1756 9.69991 10.1471 9.71444ZM11.1475 6.50534C11.1475 6.50534 11.1618 6.50534 11.1761 6.51986C11.1761 6.51986 11.1761 6.53438 11.1761 6.5489H11.1189C11.1189 6.5489 11.1332 6.50534 11.1475 6.50534ZM9.5468 7.11521C9.5468 7.11521 9.51821 7.10069 9.51821 7.08617C9.51821 7.08617 9.51821 7.07165 9.5325 7.05713C9.5325 7.05713 9.5468 7.05713 9.56109 7.05713C9.56109 7.07165 9.56109 7.10069 9.5468 7.11521ZM9.5468 8.30592C9.5468 8.30592 9.51821 8.2914 9.51821 8.27687C9.51821 8.27687 9.51821 8.26235 9.5325 8.24783C9.5325 8.24783 9.5468 8.24783 9.56109 8.24783C9.56109 8.26235 9.56109 8.2914 9.5468 8.30592ZM9.06087 7.43467C9.06087 7.43467 9.0037 7.40563 8.97512 7.39111C9.0037 7.39111 9.03229 7.34754 9.07516 7.34754C9.10375 7.34754 9.13233 7.37658 9.16091 7.39111C9.13233 7.39111 9.10375 7.43467 9.07516 7.43467H9.06087ZM8.67499 7.43467C8.67499 7.43467 8.54636 7.37658 8.54636 7.33302C8.54636 7.27494 8.57495 7.21686 8.58924 7.15877C8.63211 7.23138 8.67499 7.30398 8.71787 7.39111C8.71787 7.40563 8.67499 7.44919 8.67499 7.44919V7.43467ZM8.38915 7.08617C8.38915 7.08617 8.34628 7.08617 8.33198 7.07165C8.33198 7.07165 8.34628 7.04261 8.36057 7.04261C8.36057 7.04261 8.37486 7.04261 8.38915 7.04261V7.07165V7.08617ZM8.27482 9.36594C8.27482 9.36594 8.24623 9.33689 8.23194 9.33689C8.23194 9.33689 8.24623 9.32237 8.26052 9.30785C8.26052 9.30785 8.27482 9.33689 8.28911 9.33689C8.28911 9.33689 8.28911 9.35141 8.27482 9.36594ZM7.96039 9.54019C7.96039 9.54019 7.97469 9.58375 7.98898 9.59827C7.97469 9.59827 7.9461 9.58375 7.93181 9.56923C7.93181 9.56923 7.96039 9.54018 7.97469 9.52566L7.96039 9.54019ZM7.61739 9.38046C7.61739 9.38046 7.58881 9.35141 7.58881 9.33689L7.61739 9.30785C7.61739 9.30785 7.63168 9.33689 7.64597 9.35141C7.64597 9.35141 7.61739 9.38046 7.6031 9.38046H7.61739ZM7.21722 8.16071C7.21722 8.16071 7.17434 8.16071 7.16005 8.14619C7.16005 8.14619 7.17434 8.11715 7.18863 8.11715C7.18863 8.11715 7.20292 8.11715 7.21722 8.13167C7.21722 8.13167 7.21722 8.14619 7.21722 8.16071ZM6.68842 7.60892H6.63125C6.63125 7.56535 6.63125 7.52179 6.63125 7.46371C6.67412 7.49275 6.70271 7.50727 6.70271 7.52179C6.70271 7.55083 6.70271 7.57988 6.68842 7.60892ZM6.21678 7.7396C6.21678 7.7396 6.20249 7.69604 6.1882 7.667C6.21678 7.667 6.23108 7.68152 6.25966 7.69604C6.25966 7.69604 6.23107 7.72508 6.21678 7.7396ZM6.11674 8.2914C6.11674 8.2914 6.10245 8.24783 6.08816 8.21879C6.11674 8.21879 6.13103 8.23331 6.15962 8.24783C6.15962 8.24783 6.13103 8.27687 6.11674 8.2914ZM6.04528 8.13167C6.04528 8.13167 6.05957 8.17523 6.07386 8.20427C6.04528 8.20427 6.03099 8.18975 6.0024 8.17523C6.0024 8.17523 6.03099 8.14619 6.04528 8.13167ZM5.87378 7.81221C5.87378 7.81221 5.87378 7.72508 5.90236 7.72508C5.95953 7.69604 6.0167 7.69604 6.08816 7.68152C6.05957 7.7396 6.03099 7.78317 5.98811 7.82673C5.97382 7.84125 5.91665 7.82673 5.87378 7.81221ZM6.1882 7.667C6.1882 7.667 6.11674 7.667 6.08816 7.667C6.08816 7.5944 6.08816 7.52179 6.08816 7.46371C6.27395 7.49275 6.28824 7.49275 6.1882 7.667ZM5.75944 7.81221C5.75944 7.81221 5.44502 7.92838 5.38785 7.87029C5.38785 7.87029 5.37356 7.84125 5.35927 7.84125C5.38785 7.82673 5.41644 7.81221 5.44502 7.79769C5.53077 7.76865 5.60223 7.7396 5.68798 7.72508C5.70227 7.72508 5.73086 7.75413 5.74515 7.76865C5.74515 7.76865 5.74515 7.81221 5.74515 7.82673L5.75944 7.81221ZM5.50219 7.47823L5.53077 7.50727C5.53077 7.50727 5.51648 7.52179 5.50219 7.53631C5.50219 7.53631 5.4879 7.53631 5.4736 7.52179C5.4736 7.50727 5.50219 7.49275 5.50219 7.47823ZM5.11631 8.00098C5.11631 8.00098 5.14489 7.9429 5.15918 7.92838C5.17347 7.9429 5.18777 7.95742 5.20206 7.97194C5.17347 7.97194 5.14489 8.00098 5.11631 8.00098ZM4.71613 8.05906C4.71613 8.05906 4.68755 8.00098 4.71613 7.97194C4.71613 7.9429 4.75901 7.91385 4.78759 7.91385C4.90193 7.9429 5.01626 7.97194 5.11631 8.00098C5.01626 8.21879 4.85905 8.07358 4.73043 8.05906H4.71613ZM4.47317 9.94677C4.55892 9.94677 4.65897 9.91773 4.67326 10.0484C4.58751 10.0484 4.48746 10.092 4.47317 9.94677ZM4.4303 9.87416C4.4303 9.87416 4.44459 9.91773 4.45888 9.94677C4.4303 9.94677 4.416 9.93225 4.38742 9.91773C4.38742 9.91773 4.416 9.88869 4.4303 9.87416ZM4.416 8.66894C4.416 8.66894 4.4303 8.69798 4.44459 8.69798C4.44459 8.69798 4.44459 8.7125 4.4303 8.72702C4.416 8.72702 4.40171 8.69798 4.38742 8.69798C4.38742 8.69798 4.40171 8.68346 4.416 8.66894ZM4.63038 7.47823C4.63038 7.47823 4.65897 7.50727 4.65897 7.52179C4.65897 7.52179 4.63038 7.55083 4.61609 7.55083C4.61609 7.55083 4.58751 7.53631 4.58751 7.52179C4.58751 7.52179 4.61609 7.49275 4.63038 7.49275V7.47823ZM3.9015 9.27881C3.9015 9.27881 3.87291 9.24977 3.85862 9.24977C3.85862 9.24977 3.87291 9.23525 3.8872 9.22073C3.8872 9.22073 3.9015 9.24977 3.91579 9.24977C3.91579 9.24977 3.91579 9.26429 3.9015 9.27881ZM3.74428 9.90321C3.74428 9.90321 3.77287 9.88869 3.77287 9.87416C3.77287 9.87416 3.78716 9.88869 3.80145 9.90321C3.78716 9.90321 3.75858 9.90321 3.74428 9.90321ZM3.34411 8.85771L3.31553 8.82867C3.31553 8.82867 3.34411 8.79962 3.3584 8.79962C3.3584 8.79962 3.38699 8.81415 3.38699 8.82867C3.38699 8.82867 3.3584 8.84319 3.34411 8.85771ZM3.11544 8.53825C3.11544 8.53825 3.02969 8.48017 2.98681 8.4366C3.05827 8.40756 3.12973 8.364 3.1869 8.33496C3.15832 8.40756 3.12973 8.46565 3.10115 8.53825H3.11544ZM3.04398 9.17717C3.04398 9.17717 2.98681 9.1336 2.98681 9.11908C2.98681 9.09004 3.0154 9.061 3.0154 9.03196C3.02969 9.04648 3.04398 9.07552 3.07256 9.09004C3.07256 9.11908 3.04398 9.14812 3.04398 9.17717ZM2.92965 9.72896L2.90106 9.69991C2.90106 9.69991 2.92965 9.67087 2.94394 9.67087C2.94394 9.67087 2.97252 9.68539 2.98681 9.69991C2.98681 9.69991 2.95823 9.71443 2.94394 9.72896H2.92965ZM2.81531 8.49469C2.81531 8.49469 2.85819 8.48017 2.87248 8.46564C2.87248 8.49469 2.85819 8.50921 2.84389 8.53825L2.81531 8.50921V8.49469ZM2.98681 8.45113C2.98681 8.45113 2.92965 8.45113 2.90106 8.45113C2.90106 8.42208 2.91535 8.40756 2.92965 8.37852C2.94394 8.40756 2.97252 8.42208 2.98681 8.45113ZM3.3584 8.16071C3.3584 8.16071 3.38699 8.18975 3.40128 8.20427C3.37269 8.20427 3.3584 8.21879 3.32982 8.23331C3.32982 8.20427 3.3584 8.18975 3.3584 8.16071ZM2.35797 9.10456C2.35797 9.10456 2.35797 9.03196 2.35797 9.00292C2.40085 8.93031 2.45801 8.87223 2.51518 8.79962C2.51518 8.82867 2.54376 8.85771 2.55806 8.90127C2.58664 9.07552 2.50089 9.1336 2.35797 9.10456ZM2.4866 10.0194C2.4866 10.0194 2.50089 9.99033 2.51518 9.99033C2.51518 9.99033 2.52947 10.0194 2.54376 10.0339C2.52947 10.0339 2.50089 10.0339 2.4866 10.0339V10.0194ZM2.14359 10.2807C2.14359 10.2807 2.1293 10.2372 2.11501 10.2081C2.08642 10.2372 2.07213 10.2517 2.04355 10.2807C2.01496 10.2372 1.98638 10.1791 1.9435 10.1355C2.04355 10.1355 2.1293 10.1355 2.22934 10.1355C2.20076 10.1791 2.17217 10.2372 2.14359 10.2807ZM2.04355 10.3824C2.04355 10.3824 2.04355 10.3243 2.04355 10.2953C2.07213 10.2953 2.10072 10.2953 2.1293 10.2953C2.10072 10.3243 2.07213 10.3534 2.04355 10.3824ZM25.468 5.27107C25.468 5.27107 25.4966 5.24202 25.5108 5.2275C25.5108 5.25655 25.5251 5.27107 25.5394 5.30011C25.5108 5.30011 25.4966 5.28559 25.468 5.27107ZM24.639 1.72799C24.639 1.72799 24.6105 1.71347 24.6105 1.69895C24.6105 1.69895 24.6105 1.68443 24.6248 1.6699C24.6248 1.6699 24.639 1.6699 24.6533 1.6699C24.6533 1.68443 24.6533 1.71347 24.639 1.72799ZM23.853 1.14716C23.853 1.14716 23.8673 1.11811 23.8816 1.11811C23.8816 1.11811 23.8959 1.11811 23.9102 1.11811V1.14716C23.8959 1.14716 23.8673 1.14716 23.853 1.13263V1.14716ZM23.6815 2.38142C23.6815 2.38142 23.6529 2.35238 23.6529 2.33786C23.6529 2.33786 23.6815 2.30882 23.6815 2.2943C23.6815 2.2943 23.6958 2.32334 23.7101 2.33786C23.7101 2.33786 23.6815 2.3669 23.6815 2.38142ZM23.3528 0.52276C23.3528 0.52276 23.3385 0.479198 23.3242 0.450156C23.3528 0.450156 23.3671 0.464677 23.3956 0.479198C23.3956 0.479198 23.3671 0.50824 23.3528 0.52276ZM33.3285 9.26429C33.1999 9.01744 33.2999 8.77058 33.2571 8.52373C33.4714 8.34948 33.1856 8.14619 33.2571 7.98646C33.3571 7.78317 33.4143 7.63796 33.157 7.52179C33.1427 7.52179 33.1284 7.44919 33.157 7.42015C33.3571 7.17329 33.1999 6.97 33.0713 6.79575C32.9426 6.60698 32.7997 6.38917 32.5996 6.30204C32.4996 6.24396 32.3995 6.09875 32.3138 6.11327C32.0851 6.17136 32.0708 5.95354 31.9565 5.86642C31.8565 5.79382 31.7707 5.70669 31.6278 5.72121C31.5706 5.72121 31.4563 5.67765 31.4563 5.64861C31.442 5.41627 31.1704 5.59052 31.1419 5.44532C31.0847 5.18394 30.8846 5.32915 30.756 5.28559C30.7417 5.28559 30.7131 5.25655 30.7131 5.25655C30.7131 5.19846 30.7274 5.14038 30.7417 5.0823C30.6845 5.11134 30.6131 5.12586 30.5559 5.1549C30.4558 5.21298 30.413 5.1549 30.3701 5.06777C30.2843 4.92257 30.2843 4.70475 30.0843 4.64667C29.927 4.60311 29.7698 4.55955 29.6269 4.58859C29.4411 4.61763 29.4983 4.26913 29.2839 4.39982C29.141 4.13844 28.7265 4.16748 28.6836 3.80446C28.6836 3.7609 28.5693 3.67378 28.555 3.6883C28.4121 3.78994 28.3835 3.6883 28.3121 3.58665C28.2549 3.51405 28.1406 3.47049 28.0548 3.4124C27.8404 3.29624 27.6261 3.20911 27.4117 3.09294C27.2688 3.00582 27.1687 2.86061 27.0115 2.80253C26.6256 2.67184 26.3541 2.39595 26.0254 2.17813C25.7681 2.00388 25.568 1.80059 25.4251 1.5247C25.3822 1.45209 25.3393 1.39401 25.2965 1.32141C25.0821 1.48113 25.1821 1.16168 25.0678 1.16168C24.982 1.16168 24.8677 1.16168 24.8391 1.10359C24.782 1.01647 24.7248 0.900302 24.782 0.784135C24.782 0.769614 24.7248 0.69701 24.6819 0.667969C24.539 0.580844 24.3818 0.493719 24.2246 0.435636C24.1245 0.406594 24.0674 0.363031 24.0817 0.261386C24.0817 0.0580944 23.8959 0.101657 23.7958 0.0290527C23.7529 0.116178 23.6958 0.203303 23.6529 0.290427C23.6529 0.290427 23.6529 0.33399 23.6529 0.348511C23.6386 0.406594 23.61 0.450156 23.5814 0.50824C23.5814 0.464677 23.5672 0.406594 23.5386 0.363031C23.51 0.319469 23.4528 0.246865 23.4099 0.246865C23.2813 0.246865 23.3242 0.363031 23.3242 0.450156C23.1098 0.537281 23.2384 0.69701 23.2527 0.842218C23.2956 0.798656 23.3385 0.726052 23.3956 0.711531C23.4671 0.69701 23.3956 0.929343 23.5386 0.827697C23.6958 0.711531 23.8101 0.450156 24.0102 0.755093C24.0102 0.755093 24.0388 0.755093 24.0388 0.740573C24.0674 0.69701 24.096 0.653448 24.1245 0.609885C24.1245 0.682489 24.1817 0.769614 24.1531 0.813177C24.0959 0.900302 24.0102 1.00195 23.9244 1.00195C23.7529 1.00195 23.7244 1.11811 23.6815 1.21976C23.6386 1.32141 23.6386 1.42305 23.61 1.5247C23.5814 1.68443 23.4814 1.75703 23.3099 1.75703C23.167 1.75703 23.0812 1.71347 22.9812 1.61182C22.9097 1.53922 22.8526 1.58278 22.8668 1.6699C22.8954 1.93128 22.9383 2.17813 22.9812 2.43951C22.9812 2.46855 23.0241 2.49759 23.0526 2.51211C23.2384 2.5702 23.3099 2.70088 23.2956 2.87513C23.2956 3.13651 23.5529 2.88965 23.6243 3.07842C23.6958 3.26719 23.8387 3.45596 23.9959 3.57213C24.4675 3.92063 24.8963 4.31269 25.3108 4.7338C25.5108 4.93709 25.5108 4.92257 25.3536 5.1549C25.2536 5.30011 25.3965 5.41627 25.4251 5.54696C25.568 5.54696 25.5251 5.41627 25.5394 5.32915C25.6109 5.30011 25.6966 5.28559 25.7824 5.25655C25.8253 5.25655 25.8824 5.25655 25.9253 5.24202C25.911 5.28559 25.911 5.32915 25.8824 5.37271C25.811 5.47436 25.7538 5.59052 25.6538 5.64861C25.4537 5.75025 25.568 5.82286 25.6252 5.9245C25.7109 6.08423 26.0682 6.06971 25.9396 6.33109C25.8396 6.51986 25.5823 6.37465 25.3965 6.40369C25.3251 6.40369 25.225 6.44725 25.1964 6.40369C25.0821 6.31656 24.982 6.36013 24.882 6.40369C24.6819 6.51986 24.5104 6.40369 24.3532 6.28752C24.3103 6.24396 24.2532 6.2004 24.196 6.2004C24.1388 6.2004 24.0674 6.24396 24.0102 6.273C23.9959 6.21492 23.9816 6.08423 23.9673 6.08423C23.7529 6.09875 23.5672 5.79382 23.3385 6.05519C23.0955 5.89546 23.0812 6.2004 22.9383 6.25848C22.8383 6.30204 22.7811 6.28752 22.7382 6.17136C22.7382 6.12779 22.6668 6.09875 22.6382 6.06971C22.5953 6.04067 22.5524 5.99711 22.5096 5.96807C22.481 6.04067 22.4524 6.09875 22.4381 6.17136C22.4667 6.17136 22.5096 6.17136 22.5381 6.17136C22.5381 6.17136 22.5096 6.22944 22.4953 6.25848C22.4667 6.22944 22.4524 6.2004 22.4238 6.17136C22.238 5.96807 22.1665 5.96807 21.9808 6.06971C21.8664 6.12779 21.9808 6.17136 21.9808 6.22944C21.9665 6.33109 21.8521 6.36013 21.795 6.273C21.7092 6.15684 21.6235 6.17136 21.5234 6.2004C21.452 6.21492 21.3662 6.28752 21.3376 6.25848C21.2233 6.18588 21.1232 6.01163 21.0089 6.01163C20.9089 6.01163 20.7945 6.18588 20.6802 6.25848C20.6516 6.28752 20.5516 6.24396 20.5087 6.2004C20.4229 6.12779 20.3515 6.04067 20.2657 5.95354C20.18 5.86642 20.0942 5.80834 20.0942 6.01163C20.0942 6.06971 20.1085 6.17136 19.9942 6.11327C19.9084 6.06971 19.8084 6.01163 19.7226 5.96807C19.6655 5.93902 19.594 5.89546 19.5654 5.90998C19.4654 5.95354 19.4797 6.04067 19.5511 6.11327C19.5654 6.14232 19.5511 6.2004 19.5225 6.25848C19.494 6.24396 19.4654 6.21492 19.4368 6.2004C19.3367 6.11327 19.3367 5.95354 19.1367 5.93902C19.0223 5.93902 18.9509 6.11327 18.7937 5.93902C18.6507 5.79382 18.5936 6.08423 18.4649 6.14232C18.4507 6.14232 18.4364 6.17136 18.4221 6.18588C18.2934 6.24396 18.1791 6.31656 18.0505 6.34561C17.979 6.34561 17.8933 6.25848 17.8075 6.21492C17.6789 6.12779 17.5503 6.05519 17.4073 6.21492C17.2644 6.37465 17.1215 6.22944 16.9929 6.17136C16.9643 6.11327 17.0643 5.90998 16.85 6.04067C16.5212 6.24396 16.1782 6.34561 15.8066 6.28752C15.7781 6.28752 15.7352 6.28752 15.7066 6.28752C15.5065 6.38917 15.4494 6.37465 15.5637 6.14232C15.5637 6.14232 15.4922 6.06971 15.4494 6.05519C15.2207 5.98259 15.1206 6.30204 14.9348 6.25848C14.7062 6.2004 14.5204 6.47629 14.2917 6.30204C14.1345 6.50534 13.8344 6.18588 13.7057 6.47629C13.6629 6.44725 13.6057 6.43273 13.5914 6.40369C13.5628 6.28752 13.5057 6.273 13.4056 6.30204C13.277 6.34561 13.1198 6.33109 13.0197 6.40369C12.8768 6.49081 12.7482 6.2004 12.6338 6.40369C12.5338 6.57794 12.348 6.25848 12.248 6.47629C12.248 6.47629 12.1336 6.43273 12.0908 6.46177C11.8192 6.57794 11.7335 6.60698 11.5905 6.40369C11.4905 6.273 11.3905 6.273 11.2761 6.22944C11.2475 6.51986 11.0046 6.15684 10.9331 6.33109C10.9331 6.33109 9.90409 6.67958 9.8898 6.67958C9.84693 6.66506 9.80405 6.63602 9.76117 6.6215C9.73259 6.67958 9.68971 6.73767 9.66113 6.79575C9.63255 6.85383 9.66113 6.95548 9.5468 6.88288C9.33242 6.70863 9.14662 6.79575 8.94654 6.92644C8.91795 6.94096 8.74645 7.18781 8.67499 6.8974C8.67499 6.8974 8.4749 6.92644 8.36057 6.92644C8.33198 6.92644 8.3034 6.8974 8.27482 6.86836C8.17477 6.79575 8.08902 6.70863 7.98898 6.6215C7.9461 6.75219 7.87464 6.85383 7.74602 6.85383C7.6031 6.85383 7.50305 6.92644 7.40301 7.02808C7.28868 7.14425 7.10288 7.08617 6.95996 7.12973C6.87421 7.14425 6.74558 7.05713 6.68842 7.10069C6.61696 7.14425 6.58837 7.27494 6.5455 7.36206C6.5312 7.39111 6.48833 7.42015 6.45975 7.42015C6.43116 7.42015 6.38829 7.37658 6.38829 7.34754C6.38829 7.27494 6.45974 7.14425 6.44545 7.11521C6.31683 6.99904 6.30253 7.18781 6.21678 7.23138C6.05957 7.3185 5.94524 7.23138 5.84519 7.12973C5.70227 6.99904 5.73086 7.12973 5.71657 7.20233C5.64511 7.40563 5.63082 7.42015 5.51648 7.2459C5.43073 7.12973 5.33069 7.10069 5.28781 7.21686C5.15918 7.52179 4.98768 7.52179 4.75901 7.37658C4.71613 7.34754 4.63038 7.40563 4.57321 7.43467C4.65897 7.60892 4.30167 7.76865 4.53034 7.95742C4.53034 7.95742 4.50175 8.07358 4.45888 8.10262C4.37313 8.16071 4.27308 8.18975 4.17304 8.21879C4.03012 8.26235 3.87291 8.30592 3.72999 8.32044C3.70141 8.32044 3.62995 8.27687 3.62995 8.23331C3.62995 8.20427 3.67282 8.11715 3.70141 8.11715C3.90149 8.13167 4.073 8.03002 4.23021 7.92838C4.31596 7.87029 4.416 7.79769 4.31596 7.667C4.2445 7.56536 4.17304 7.55083 4.05871 7.65248C3.98725 7.71056 3.85862 7.7396 3.75858 7.7396C3.7157 7.7396 3.65853 7.5944 3.62995 7.5944C3.5442 7.5944 3.47274 7.667 3.40128 7.69604C3.34411 7.72508 3.27265 7.75413 3.20119 7.75413C2.84389 7.75413 2.52947 7.84125 2.28651 8.13167C2.28651 8.14619 2.20076 8.11715 2.17217 8.10262C2.05784 8.07358 1.98638 8.11715 2.00067 8.21879C2.00067 8.27687 2.1293 8.364 2.18647 8.34948C2.31509 8.32044 2.44372 8.24783 2.57235 8.21879C2.60093 8.21879 2.70098 8.34948 2.68668 8.37852C2.6581 8.46564 2.58664 8.55277 2.50089 8.61085C2.25793 8.77058 2.25793 8.77058 2.41514 9.04648C2.34368 9.20621 2.31509 9.39498 2.21505 9.51114C2.02926 9.74348 1.78629 9.93225 1.57191 10.1355C1.65767 10.1646 1.74342 10.2081 1.82917 10.2372C1.91492 10.2807 2.00067 10.3098 2.10072 10.3534C2.11501 10.484 2.07213 10.6147 1.9578 10.6583C1.74342 10.7454 1.70054 10.9197 1.67196 11.1084C1.61479 11.123 1.54333 11.123 1.48616 11.1665C1.47187 11.1665 1.48616 11.2536 1.48616 11.2972C1.51475 11.2972 1.54333 11.2972 1.55762 11.2827C1.6005 11.2391 1.62908 11.181 1.67196 11.123C1.78629 11.152 1.81488 11.4134 2.00067 11.2246C2.02926 11.181 2.08642 11.152 2.1293 11.1375C2.25793 11.0939 2.4723 11.1375 2.42943 10.8761C2.42943 10.8616 2.4723 10.8035 2.4866 10.8035C2.72956 10.818 2.81531 10.6002 2.92965 10.455C3.00111 10.3679 3.0154 10.4114 3.07256 10.4405C3.21548 10.5131 3.38699 10.6147 3.38699 10.3098C3.44415 10.3098 3.52991 10.3243 3.5442 10.3098C3.57278 10.2517 3.57278 10.1791 3.58707 10.1065C3.58707 10.1065 3.65853 10.092 3.68712 10.1065C3.74428 10.1355 3.78716 10.2081 3.84433 10.2227C3.98725 10.2517 4.03012 10.3243 3.97295 10.426C3.91579 10.5276 3.83004 10.6002 3.75858 10.7018C3.72999 10.7454 3.7157 10.818 3.70141 10.8616C3.75858 10.8616 3.83004 10.8906 3.8872 10.8616C4.01583 10.818 4.13017 10.7454 4.25879 10.6728C4.27308 10.6728 4.27308 10.6292 4.28738 10.6002C4.03012 10.5421 4.25879 10.3969 4.23021 10.2953C4.20162 10.1501 4.28738 10.1065 4.416 10.1936C4.63038 10.3388 4.68755 10.1936 4.75901 10.0339C4.78759 10.0194 4.83047 10.0049 4.84476 9.99033C4.92098 9.8064 5.02579 9.79188 5.15918 9.94677C5.15918 9.94677 5.20206 10.0049 5.23064 10.0194C5.37356 10.1791 5.38785 10.121 5.43073 9.94677C5.45931 9.78704 5.64511 9.758 5.81661 9.81608C6.05957 9.90321 6.30253 9.93225 6.55979 9.81608C6.78846 9.72896 7.01713 9.68539 7.26009 9.62731L7.46018 9.56923C7.46018 9.56923 7.57451 9.4821 7.63168 9.4821C7.67456 9.4821 7.74602 9.54019 7.76031 9.59827C7.80318 9.72896 7.83177 9.85964 7.87464 9.99033C7.90323 10.0775 7.91752 10.2227 7.9461 10.2227C8.10331 10.2227 8.24623 10.1936 8.40344 10.1646C8.40344 10.121 8.40344 10.0339 8.36057 10.0339C8.28911 10.0049 8.18907 10.0049 8.11761 9.97581C7.98898 9.91773 7.98898 9.84512 8.08902 9.74348C8.11761 9.71444 8.08902 9.64183 8.08902 9.59827C8.18907 9.59827 8.36057 9.65635 8.38915 9.62731C8.50349 9.43854 8.68928 9.55471 8.8322 9.43854C8.97512 9.33689 9.17521 9.32237 9.361 9.27881C9.38958 9.27881 9.44675 9.29333 9.44675 9.32237C9.44675 9.36594 9.44675 9.45306 9.44675 9.45306C9.34671 9.49662 9.27525 9.54018 9.26096 9.67087C9.23237 9.80156 9.20379 9.80156 9.06087 9.67087C8.90366 9.54018 8.8322 9.55471 8.73216 9.77252C8.71787 9.81608 8.68928 9.84512 8.67499 9.88869C8.57495 9.81608 8.50349 9.8306 8.54636 9.96129C8.56065 10.0194 8.6607 10.0775 8.73216 10.0775C8.90366 10.0775 9.10375 10.0049 9.23237 10.0775C9.43246 10.1791 9.56109 10.121 9.7183 10.0339C9.8898 9.93225 10.0613 9.81608 10.2471 9.71444C10.2614 9.78704 10.2757 9.88869 10.3043 9.88869C10.733 9.94677 11.1761 9.97581 11.5905 9.81608C11.8478 9.72896 11.8335 9.72896 12.1908 9.77252C12.3909 9.80156 12.6624 9.84512 12.7911 9.74348C12.9626 9.59827 13.0626 9.69991 13.1912 9.72896C13.3484 9.758 13.5485 9.90321 13.6486 9.85964C14.0059 9.72896 14.406 9.81608 14.7633 9.62731C14.8062 9.59827 14.892 9.62731 14.9491 9.64183C15.2064 9.71443 15.2064 9.71444 15.2778 9.45306C15.2778 9.4095 15.3064 9.30785 15.3207 9.30785C15.5208 9.30785 15.578 9.11908 15.7066 9.00292C15.7209 8.98839 15.7924 9.00292 15.8209 9.01744C15.8495 9.04648 15.8781 9.10456 15.8638 9.1336C15.7781 9.24977 15.678 9.36594 15.5923 9.4821C15.6923 9.55471 15.8352 9.68539 15.8638 9.67087C16.0925 9.49662 16.3497 9.84512 16.5784 9.61279C16.6213 9.56923 16.8357 9.69991 16.9643 9.69991C17.0929 9.69991 17.2215 9.62731 17.3645 9.61279C17.5503 9.59827 17.7361 9.64183 17.9219 9.68539C18.0791 9.71444 18.2649 9.58375 18.4364 9.54019C18.5221 9.52567 18.6079 9.54019 18.6936 9.56923C18.908 9.61279 19.1367 9.65635 19.351 9.68539C19.4082 9.68539 19.4797 9.64183 19.5368 9.61279C19.6798 9.55471 19.8227 9.46758 19.9656 9.46758C20.0799 9.46758 20.18 9.71444 20.3372 9.54019C20.5801 9.758 20.8231 9.61279 21.0947 9.56923C21.2233 9.54019 21.3805 9.4821 21.5234 9.51114C21.6663 9.52567 21.8235 9.43854 21.9808 9.42402C22.0522 9.42402 22.1523 9.45306 22.2237 9.49662C22.4095 9.62731 22.6239 9.54019 22.824 9.56923C22.924 9.56923 23.0384 9.51114 23.167 9.56923C23.267 9.61279 23.4099 9.59827 23.5243 9.62731C23.8101 9.68539 24.1245 9.54019 24.4104 9.71444C24.4675 9.74348 24.6105 9.62731 24.6962 9.64183C24.7963 9.65635 24.8677 9.77252 24.9678 9.81608C25.0106 9.8306 25.0821 9.758 25.1393 9.71444C25.3536 9.56923 25.4108 9.59827 25.4108 9.87416C25.4108 9.97581 25.5823 10.0339 25.6966 10.0194C25.8396 9.99033 25.9539 9.758 26.1397 9.91773C26.0254 10.0194 25.9253 10.121 25.811 10.2227C25.6252 10.3824 25.4394 10.6147 25.225 10.6583C24.982 10.7164 24.882 10.8906 24.7105 11.0068C24.3961 10.8616 24.3818 11.2391 24.196 11.3262C24.1531 11.3408 24.1102 11.4279 24.0817 11.4279C23.7101 11.3698 23.5529 11.6893 23.3385 11.878C23.1241 12.0668 22.9955 12.3427 22.6953 12.4298C22.6382 12.4443 22.5524 12.5605 22.5524 12.575C22.7096 12.8074 22.338 12.7638 22.3809 12.9235C22.1665 12.9671 22.2094 13.1559 22.1523 13.2866C22.1094 13.3882 22.1523 13.4172 22.2237 13.4027C22.4238 13.3592 22.5524 13.4898 22.7096 13.5625C22.8526 13.6351 22.824 13.7222 22.7096 13.7948C22.6668 13.8238 22.6382 13.8674 22.5953 13.9109C22.5096 13.969 22.4238 14.0271 22.338 14.0852C22.4095 14.1288 22.5238 14.1433 22.5667 14.2159C22.5953 14.2594 22.5524 14.3611 22.5381 14.4337C22.481 14.6806 22.6096 14.8693 22.824 14.7967C22.9955 14.7532 23.1098 14.7532 23.2384 14.8548C23.3528 14.9419 23.4528 14.9564 23.5814 14.8838C23.6386 14.8548 23.7387 14.8258 23.7672 14.8548C23.953 15.0145 24.096 14.8838 24.2532 14.8112C24.3961 14.7386 24.5247 14.6515 24.6819 14.7822C24.7248 14.8112 24.8534 14.7822 24.8963 14.7386C25.0821 14.5353 25.4108 14.5063 25.5394 14.2304C25.5394 14.2014 25.6395 14.1723 25.6681 14.1868C25.8681 14.2885 26.0254 14.1868 26.0968 14.0416C26.1969 13.8529 26.3684 13.7657 26.5113 13.6641C26.6542 13.5624 26.7542 13.4027 26.9686 13.3737C27.1115 13.3446 27.283 13.272 27.3688 13.1704C27.4688 13.0542 27.4688 12.88 27.526 12.7202C27.526 12.6912 27.526 12.6331 27.5546 12.6186C27.6261 12.546 27.6689 12.3282 27.7833 12.6041C27.8118 12.6767 27.9405 12.7057 28.0262 12.7493C28.0548 12.6476 28.3549 12.7202 28.212 12.4879C28.3692 12.4589 28.5264 12.4443 28.6694 12.4153C28.7122 12.4153 28.7694 12.3572 28.7837 12.3137C28.8266 12.1394 28.9695 12.1539 29.0838 12.0958C29.2982 11.9942 29.484 11.82 29.6698 11.6893C29.7127 11.6602 29.8127 11.6021 29.827 11.6167C29.9699 11.7619 30.07 11.6602 30.1843 11.5731C30.3129 11.4715 30.4558 11.3553 30.6131 11.3117C31.1133 11.2101 31.1562 11.2101 31.3848 10.9487C31.4134 10.9197 31.442 10.9051 31.4849 10.8906C31.8136 10.818 32.0994 10.6438 32.3995 10.4986C32.9141 10.2372 32.9141 10.2372 33.3142 9.71444C33.4286 9.56923 33.4714 9.4095 33.3857 9.26429H33.3285Z" fill="white"/>
</g>
</svg>
