<svg width="54" height="55" viewBox="0 0 54 55" fill="none" xmlns="http://www.w3.org/2000/svg">
<g clip-path="url(#clip0_173_1649)">
<path d="M24.75 20.2737L31.5 27.0237L24.75 33.7737" stroke="white" stroke-width="1.5" stroke-linecap="round" stroke-linejoin="round"/>
<path d="M6.75 27.0237C6.75 29.6829 7.27378 32.3162 8.29144 34.773C9.3091 37.2299 10.8007 39.4622 12.6811 41.3426C14.5615 43.223 16.7938 44.7146 19.2507 45.7322C21.7075 46.7499 24.3407 47.2737 27 47.2737C29.6593 47.2737 32.2925 46.7499 34.7493 45.7322C37.2062 44.7146 39.4385 43.223 41.3189 41.3426C43.1993 39.4622 44.6909 37.2299 45.7086 34.773C46.7262 32.3162 47.25 29.6829 47.25 27.0237C47.25 21.653 45.1165 16.5024 41.3189 12.7048C37.5213 8.90716 32.3706 6.77368 27 6.77368C21.6294 6.77368 16.4787 8.90716 12.6811 12.7048C8.88348 16.5024 6.75 21.653 6.75 27.0237Z" stroke="white" stroke-width="1.5" stroke-linecap="round" stroke-linejoin="round"/>
</g>
<defs>
<clipPath id="clip0_173_1649">
<rect width="54" height="54" fill="white" transform="translate(0 0.0236816)"/>
</clipPath>
</defs>
</svg>
