<svg width="54" height="55" viewBox="0 0 54 55" fill="none" xmlns="http://www.w3.org/2000/svg">
<g clip-path="url(#clip0_173_1579)">
<path d="M29.25 33.7737L22.5 27.0237L29.25 20.2737" stroke="white" stroke-width="1.5" stroke-linecap="round" stroke-linejoin="round"/>
<path d="M47.25 27.0237C47.25 24.3644 46.7262 21.7312 45.7086 19.2743C44.6909 16.8175 43.1993 14.5852 41.3189 12.7048C39.4385 10.8244 37.2062 9.33278 34.7493 8.31512C32.2925 7.29746 29.6593 6.77368 27 6.77368C24.3407 6.77368 21.7075 7.29746 19.2507 8.31512C16.7938 9.33278 14.5615 10.8244 12.6811 12.7048C10.8007 14.5852 9.3091 16.8175 8.29144 19.2743C7.27378 21.7312 6.75 24.3644 6.75 27.0237C6.75 32.3943 8.88348 37.545 12.6811 41.3426C16.4787 45.1402 21.6294 47.2737 27 47.2737C32.3706 47.2737 37.5213 45.1402 41.3189 41.3426C45.1165 37.545 47.25 32.3943 47.25 27.0237Z" stroke="white" stroke-width="1.5" stroke-linecap="round" stroke-linejoin="round"/>
</g>
<defs>
<clipPath id="clip0_173_1579">
<rect width="54" height="54" fill="white" transform="translate(0 0.0236816)"/>
</clipPath>
</defs>
</svg>
