<svg width="221" height="392" viewBox="0 0 221 392" fill="none" xmlns="http://www.w3.org/2000/svg">
<g clip-path="url(#clip0_37_962)">
<g filter="url(#filter0_f_37_962)">
<path d="M181.56 11.9429H39.4404C24.0427 11.9429 11.5604 24.8384 11.5604 40.7457V351.255C11.5604 367.162 24.0427 380.058 39.4404 380.058H181.56C196.958 380.058 209.44 367.162 209.44 351.255V40.7457C209.44 24.8384 196.958 11.9429 181.56 11.9429Z" stroke="url(#paint0_linear_37_962)" stroke-width="4.33333"/>
</g>
<g filter="url(#filter1_f_37_962)">
<path d="M181.56 11.9429H39.4404C24.0427 11.9429 11.5604 24.8384 11.5604 40.7457V351.255C11.5604 367.162 24.0427 380.058 39.4404 380.058H181.56C196.958 380.058 209.44 367.162 209.44 351.255V40.7457C209.44 24.8384 196.958 11.9429 181.56 11.9429Z" stroke="url(#paint1_linear_37_962)" stroke-width="4.33333"/>
</g>
<g filter="url(#filter2_f_37_962)">
<path d="M181.56 11.9429H39.4404C24.0427 11.9429 11.5604 24.8384 11.5604 40.7457V351.255C11.5604 367.162 24.0427 380.058 39.4404 380.058H181.56C196.958 380.058 209.44 367.162 209.44 351.255V40.7457C209.44 24.8384 196.958 11.9429 181.56 11.9429Z" stroke="url(#paint2_linear_37_962)" stroke-width="4.33333"/>
</g>
<g filter="url(#filter3_f_37_962)">
<path d="M181.56 11.9429H39.4404C24.0427 11.9429 11.5604 24.8384 11.5604 40.7457V351.255C11.5604 367.162 24.0427 380.058 39.4404 380.058H181.56C196.958 380.058 209.44 367.162 209.44 351.255V40.7457C209.44 24.8384 196.958 11.9429 181.56 11.9429Z" stroke="url(#paint3_linear_37_962)" stroke-width="4.33333"/>
</g>
<g filter="url(#filter4_f_37_962)">
<path d="M181.56 11.9429H39.4404C24.0427 11.9429 11.5604 24.8384 11.5604 40.7457V351.255C11.5604 367.162 24.0427 380.058 39.4404 380.058H181.56C196.958 380.058 209.44 367.162 209.44 351.255V40.7457C209.44 24.8384 196.958 11.9429 181.56 11.9429Z" stroke="url(#paint4_linear_37_962)" stroke-width="4.33333"/>
</g>
<g filter="url(#filter5_f_37_962)">
<path d="M181.56 11.9429H39.4404C24.0427 11.9429 11.5604 24.8384 11.5604 40.7457V351.255C11.5604 367.162 24.0427 380.058 39.4404 380.058H181.56C196.958 380.058 209.44 367.162 209.44 351.255V40.7457C209.44 24.8384 196.958 11.9429 181.56 11.9429Z" stroke="url(#paint5_linear_37_962)" stroke-width="4.33333"/>
</g>
</g>
<defs>
<filter id="filter0_f_37_962" x="-0.717435" y="-0.334744" width="222.436" height="392.67" filterUnits="userSpaceOnUse" color-interpolation-filters="sRGB">
<feFlood flood-opacity="0" result="BackgroundImageFix"/>
<feBlend mode="normal" in="SourceGraphic" in2="BackgroundImageFix" result="shape"/>
<feGaussianBlur stdDeviation="5.05556" result="effect1_foregroundBlur_37_962"/>
</filter>
<filter id="filter1_f_37_962" x="-0.717435" y="-0.334744" width="222.436" height="392.67" filterUnits="userSpaceOnUse" color-interpolation-filters="sRGB">
<feFlood flood-opacity="0" result="BackgroundImageFix"/>
<feBlend mode="normal" in="SourceGraphic" in2="BackgroundImageFix" result="shape"/>
<feGaussianBlur stdDeviation="5.05556" result="effect1_foregroundBlur_37_962"/>
</filter>
<filter id="filter2_f_37_962" x="-0.717435" y="-0.334744" width="222.436" height="392.67" filterUnits="userSpaceOnUse" color-interpolation-filters="sRGB">
<feFlood flood-opacity="0" result="BackgroundImageFix"/>
<feBlend mode="normal" in="SourceGraphic" in2="BackgroundImageFix" result="shape"/>
<feGaussianBlur stdDeviation="5.05556" result="effect1_foregroundBlur_37_962"/>
</filter>
<filter id="filter3_f_37_962" x="-0.717435" y="-0.334744" width="222.436" height="392.67" filterUnits="userSpaceOnUse" color-interpolation-filters="sRGB">
<feFlood flood-opacity="0" result="BackgroundImageFix"/>
<feBlend mode="normal" in="SourceGraphic" in2="BackgroundImageFix" result="shape"/>
<feGaussianBlur stdDeviation="5.05556" result="effect1_foregroundBlur_37_962"/>
</filter>
<filter id="filter4_f_37_962" x="-0.717435" y="-0.334744" width="222.436" height="392.67" filterUnits="userSpaceOnUse" color-interpolation-filters="sRGB">
<feFlood flood-opacity="0" result="BackgroundImageFix"/>
<feBlend mode="normal" in="SourceGraphic" in2="BackgroundImageFix" result="shape"/>
<feGaussianBlur stdDeviation="5.05556" result="effect1_foregroundBlur_37_962"/>
</filter>
<filter id="filter5_f_37_962" x="-0.717435" y="-0.334744" width="222.436" height="392.67" filterUnits="userSpaceOnUse" color-interpolation-filters="sRGB">
<feFlood flood-opacity="0" result="BackgroundImageFix"/>
<feBlend mode="normal" in="SourceGraphic" in2="BackgroundImageFix" result="shape"/>
<feGaussianBlur stdDeviation="5.05556" result="effect1_foregroundBlur_37_962"/>
</filter>
<linearGradient id="paint0_linear_37_962" x1="9.52038" y1="382.165" x2="241.998" y2="53.8194" gradientUnits="userSpaceOnUse">
<stop stop-color="#CB00DD"/>
<stop offset="0.25" stop-color="#01FDFE"/>
<stop offset="0.34" stop-color="#06F6FD"/>
<stop offset="0.41" stop-color="#10EAFC"/>
<stop offset="0.46" stop-color="#1DD9FA"/>
<stop offset="0.51" stop-color="#2FC3F7"/>
<stop offset="0.55" stop-color="#44A8F3"/>
<stop offset="0.58" stop-color="#5E87EF"/>
<stop offset="0.61" stop-color="#7C62EA"/>
<stop offset="0.65" stop-color="#9F37E4"/>
<stop offset="0.67" stop-color="#C309DE"/>
<stop offset="0.98" stop-color="#00FFFF"/>
</linearGradient>
<linearGradient id="paint1_linear_37_962" x1="9.52038" y1="382.165" x2="241.998" y2="53.8194" gradientUnits="userSpaceOnUse">
<stop stop-color="#CB00DD"/>
<stop offset="0.25" stop-color="#01FDFE"/>
<stop offset="0.34" stop-color="#06F6FD"/>
<stop offset="0.41" stop-color="#10EAFC"/>
<stop offset="0.46" stop-color="#1DD9FA"/>
<stop offset="0.51" stop-color="#2FC3F7"/>
<stop offset="0.55" stop-color="#44A8F3"/>
<stop offset="0.58" stop-color="#5E87EF"/>
<stop offset="0.61" stop-color="#7C62EA"/>
<stop offset="0.65" stop-color="#9F37E4"/>
<stop offset="0.67" stop-color="#C309DE"/>
<stop offset="0.98" stop-color="#00FFFF"/>
</linearGradient>
<linearGradient id="paint2_linear_37_962" x1="9.52038" y1="382.165" x2="241.998" y2="53.8194" gradientUnits="userSpaceOnUse">
<stop stop-color="#CB00DD"/>
<stop offset="0.25" stop-color="#01FDFE"/>
<stop offset="0.34" stop-color="#06F6FD"/>
<stop offset="0.41" stop-color="#10EAFC"/>
<stop offset="0.46" stop-color="#1DD9FA"/>
<stop offset="0.51" stop-color="#2FC3F7"/>
<stop offset="0.55" stop-color="#44A8F3"/>
<stop offset="0.58" stop-color="#5E87EF"/>
<stop offset="0.61" stop-color="#7C62EA"/>
<stop offset="0.65" stop-color="#9F37E4"/>
<stop offset="0.67" stop-color="#C309DE"/>
<stop offset="0.98" stop-color="#00FFFF"/>
</linearGradient>
<linearGradient id="paint3_linear_37_962" x1="9.52038" y1="382.165" x2="241.998" y2="53.8194" gradientUnits="userSpaceOnUse">
<stop stop-color="#CB00DD"/>
<stop offset="0.25" stop-color="#01FDFE"/>
<stop offset="0.34" stop-color="#06F6FD"/>
<stop offset="0.41" stop-color="#10EAFC"/>
<stop offset="0.46" stop-color="#1DD9FA"/>
<stop offset="0.51" stop-color="#2FC3F7"/>
<stop offset="0.55" stop-color="#44A8F3"/>
<stop offset="0.58" stop-color="#5E87EF"/>
<stop offset="0.61" stop-color="#7C62EA"/>
<stop offset="0.65" stop-color="#9F37E4"/>
<stop offset="0.67" stop-color="#C309DE"/>
<stop offset="0.98" stop-color="#00FFFF"/>
</linearGradient>
<linearGradient id="paint4_linear_37_962" x1="9.52038" y1="382.165" x2="241.998" y2="53.8194" gradientUnits="userSpaceOnUse">
<stop stop-color="#CB00DD"/>
<stop offset="0.25" stop-color="#01FDFE"/>
<stop offset="0.34" stop-color="#06F6FD"/>
<stop offset="0.41" stop-color="#10EAFC"/>
<stop offset="0.46" stop-color="#1DD9FA"/>
<stop offset="0.51" stop-color="#2FC3F7"/>
<stop offset="0.55" stop-color="#44A8F3"/>
<stop offset="0.58" stop-color="#5E87EF"/>
<stop offset="0.61" stop-color="#7C62EA"/>
<stop offset="0.65" stop-color="#9F37E4"/>
<stop offset="0.67" stop-color="#C309DE"/>
<stop offset="0.98" stop-color="#00FFFF"/>
</linearGradient>
<linearGradient id="paint5_linear_37_962" x1="9.52038" y1="382.165" x2="241.998" y2="53.8194" gradientUnits="userSpaceOnUse">
<stop stop-color="#CB00DD"/>
<stop offset="0.25" stop-color="#01FDFE"/>
<stop offset="0.34" stop-color="#06F6FD"/>
<stop offset="0.41" stop-color="#10EAFC"/>
<stop offset="0.46" stop-color="#1DD9FA"/>
<stop offset="0.51" stop-color="#2FC3F7"/>
<stop offset="0.55" stop-color="#44A8F3"/>
<stop offset="0.58" stop-color="#5E87EF"/>
<stop offset="0.61" stop-color="#7C62EA"/>
<stop offset="0.65" stop-color="#9F37E4"/>
<stop offset="0.67" stop-color="#C309DE"/>
<stop offset="0.98" stop-color="#00FFFF"/>
</linearGradient>
<clipPath id="clip0_37_962">
<rect width="221" height="392" fill="white"/>
</clipPath>
</defs>
</svg>
