<svg width="840" height="207" viewBox="0 0 840 207" fill="none" xmlns="http://www.w3.org/2000/svg">
<path d="M24.3203 83.1396V160.32C24.3203 185.8 201.46 206.46 420 206.46C638.54 206.46 815.68 185.8 815.68 160.32V83.1396H24.3203Z" fill="url(#paint0_linear_168_322)"/>
<path d="M420 129.28C638.528 129.28 815.68 108.622 815.68 83.14C815.68 57.6576 638.528 37 420 37C201.472 37 24.3203 57.6576 24.3203 83.14C24.3203 108.622 201.472 129.28 420 129.28Z" fill="url(#paint1_radial_168_322)"/>
<g filter="url(#filter0_f_168_322)">
<path d="M816 113C527.271 199.713 167.696 149.13 24 113V121.788C384 201 701.711 163.452 816 121.788V113Z" fill="url(#paint2_linear_168_322)"/>
</g>
<g filter="url(#filter1_f_168_322)">
<path d="M816 113C527.271 199.713 167.696 149.13 24 113V121.788C384 201 701.711 163.452 816 121.788V113Z" fill="url(#paint3_linear_168_322)"/>
</g>
<g filter="url(#filter2_f_168_322)">
<path d="M816 113C527.271 199.713 167.696 149.13 24 113V121.788C384 201 701.711 163.452 816 121.788V113Z" fill="url(#paint4_linear_168_322)"/>
</g>
<path d="M816 121C531 208 173 148 24 121V129.788C384 209 701.711 171.452 816 129.788V121Z" fill="url(#paint5_linear_168_322)"/>
<ellipse cx="419.5" cy="70.5" rx="310.5" ry="70.5" fill="url(#paint6_radial_168_322)" fill-opacity="0.57"/>
<defs>
<filter id="filter0_f_168_322" x="0" y="89" width="840" height="103.163" filterUnits="userSpaceOnUse" color-interpolation-filters="sRGB">
<feFlood flood-opacity="0" result="BackgroundImageFix"/>
<feBlend mode="normal" in="SourceGraphic" in2="BackgroundImageFix" result="shape"/>
<feGaussianBlur stdDeviation="12" result="effect1_foregroundBlur_168_322"/>
</filter>
<filter id="filter1_f_168_322" x="0" y="89" width="840" height="103.163" filterUnits="userSpaceOnUse" color-interpolation-filters="sRGB">
<feFlood flood-opacity="0" result="BackgroundImageFix"/>
<feBlend mode="normal" in="SourceGraphic" in2="BackgroundImageFix" result="shape"/>
<feGaussianBlur stdDeviation="12" result="effect1_foregroundBlur_168_322"/>
</filter>
<filter id="filter2_f_168_322" x="0" y="89" width="840" height="103.163" filterUnits="userSpaceOnUse" color-interpolation-filters="sRGB">
<feFlood flood-opacity="0" result="BackgroundImageFix"/>
<feBlend mode="normal" in="SourceGraphic" in2="BackgroundImageFix" result="shape"/>
<feGaussianBlur stdDeviation="12" result="effect1_foregroundBlur_168_322"/>
</filter>
<linearGradient id="paint0_linear_168_322" x1="-48" y1="158" x2="888" y2="172" gradientUnits="userSpaceOnUse">
<stop stop-color="#6125B9"/>
<stop offset="0.272119" stop-color="#420B8D"/>
<stop offset="0.504533" stop-color="#2F005E"/>
<stop offset="0.812195" stop-color="#581FA7"/>
<stop offset="1" stop-color="#6024BB"/>
</linearGradient>
<radialGradient id="paint1_radial_168_322" cx="0" cy="0" r="1" gradientUnits="userSpaceOnUse" gradientTransform="translate(420 29) rotate(90) scale(128 487.786)">
<stop offset="0.0506962" stop-color="#46A7EC"/>
<stop offset="0.524725" stop-color="#470C9B"/>
<stop offset="1" stop-color="#470C9B"/>
</radialGradient>
<linearGradient id="paint2_linear_168_322" x1="24" y1="113" x2="367.287" y2="-279.476" gradientUnits="userSpaceOnUse">
<stop stop-color="#00FFFF"/>
<stop offset="0.106787" stop-color="#C309DE"/>
<stop offset="0.25" stop-color="#01FDFE"/>
<stop offset="0.34" stop-color="#06F6FD"/>
<stop offset="0.41" stop-color="#10EAFC"/>
<stop offset="0.46" stop-color="#1DD9FA"/>
<stop offset="0.51" stop-color="#2FC3F7"/>
<stop offset="0.55" stop-color="#44A8F3"/>
<stop offset="0.58" stop-color="#5E87EF"/>
<stop offset="0.61" stop-color="#7C62EA"/>
<stop offset="0.65" stop-color="#9F37E4"/>
<stop offset="0.68" stop-color="#CB00DD"/>
<stop offset="0.98" stop-color="#00FFFF"/>
</linearGradient>
<linearGradient id="paint3_linear_168_322" x1="24" y1="113" x2="367.287" y2="-279.476" gradientUnits="userSpaceOnUse">
<stop stop-color="#00FFFF"/>
<stop offset="0.106787" stop-color="#C309DE"/>
<stop offset="0.25" stop-color="#01FDFE"/>
<stop offset="0.34" stop-color="#06F6FD"/>
<stop offset="0.41" stop-color="#10EAFC"/>
<stop offset="0.46" stop-color="#1DD9FA"/>
<stop offset="0.51" stop-color="#2FC3F7"/>
<stop offset="0.55" stop-color="#44A8F3"/>
<stop offset="0.58" stop-color="#5E87EF"/>
<stop offset="0.61" stop-color="#7C62EA"/>
<stop offset="0.65" stop-color="#9F37E4"/>
<stop offset="0.68" stop-color="#CB00DD"/>
<stop offset="0.98" stop-color="#00FFFF"/>
</linearGradient>
<linearGradient id="paint4_linear_168_322" x1="24" y1="113" x2="367.287" y2="-279.476" gradientUnits="userSpaceOnUse">
<stop stop-color="#00FFFF"/>
<stop offset="0.106787" stop-color="#C309DE"/>
<stop offset="0.25" stop-color="#01FDFE"/>
<stop offset="0.34" stop-color="#06F6FD"/>
<stop offset="0.41" stop-color="#10EAFC"/>
<stop offset="0.46" stop-color="#1DD9FA"/>
<stop offset="0.51" stop-color="#2FC3F7"/>
<stop offset="0.55" stop-color="#44A8F3"/>
<stop offset="0.58" stop-color="#5E87EF"/>
<stop offset="0.61" stop-color="#7C62EA"/>
<stop offset="0.65" stop-color="#9F37E4"/>
<stop offset="0.68" stop-color="#CB00DD"/>
<stop offset="0.98" stop-color="#00FFFF"/>
</linearGradient>
<linearGradient id="paint5_linear_168_322" x1="24" y1="121" x2="367.287" y2="-271.476" gradientUnits="userSpaceOnUse">
<stop stop-color="#00FFFF"/>
<stop offset="0.106787" stop-color="#C309DE"/>
<stop offset="0.25" stop-color="#01FDFE"/>
<stop offset="0.34" stop-color="#06F6FD"/>
<stop offset="0.41" stop-color="#10EAFC"/>
<stop offset="0.46" stop-color="#1DD9FA"/>
<stop offset="0.51" stop-color="#2FC3F7"/>
<stop offset="0.55" stop-color="#44A8F3"/>
<stop offset="0.58" stop-color="#5E87EF"/>
<stop offset="0.61" stop-color="#7C62EA"/>
<stop offset="0.65" stop-color="#9F37E4"/>
<stop offset="0.68" stop-color="#CB00DD"/>
<stop offset="0.98" stop-color="#00FFFF"/>
</linearGradient>
<radialGradient id="paint6_radial_168_322" cx="0" cy="0" r="1" gradientUnits="userSpaceOnUse" gradientTransform="translate(419.5 70.5) rotate(90) scale(70.5 310.5)">
<stop/>
<stop offset="1" stop-opacity="0"/>
</radialGradient>
</defs>
</svg>
